<?xml version="1.0" encoding="UTF-8"?>
<svg viewBox="0 0 100 100" version="1.1" xmlns="http://www.w3.org/2000/svg" xmlns:xlink="http://www.w3.org/1999/xlink">
    <title>B6E4EB2F-F80F-4CD2-BF54-0296EB3C0378</title>
    <g id="لندینگ-امارت-ترکیه-ایبی" stroke="none" stroke-width="1" fill="none" fill-rule="evenodd">
        <g id="Asia-crawl-landing2-modal" transform="translate(-552.000000, -340.000000)">
            <g id="Group-5-Copy-2" transform="translate(552.488007, 340.091070)">
                <polygon id="Path-6" fill="#DF004B" points="25.1173394 7.47906892 34.2245906 7.47906892 41.1780965 34.7398812 32.0235931 34.7398812"></polygon>
                <polygon id="Path-8" fill="#001130" points="36.6515267 30.1428582 32.0235931 34.7398812 30.2587575 29.4164103"></polygon>
                <polygon id="Path-7" fill="#FF0050" points="4.14157738 30.1428582 36.6515267 30.1428582 22.9183169 2.78526695 4.14157738 2.78526695"></polygon>
                <g id="turkey" transform="translate(8.345888, 9.447227)" fill="#F5F5F5" fill-rule="nonzero">
                    <g id="Group">
                        <path d="M14.8503116,4.6125171 L15.9501775,6.05131683 L17.6675802,5.47646463 C17.7636009,5.44427228 17.8453138,5.55293142 17.7878445,5.63623412 L16.7593583,7.12685958 L17.8368087,8.5825901 C17.8970601,8.66398511 17.8190035,8.77518785 17.722029,8.74625447 L15.9865032,8.22871262 L14.9350451,9.70320215 C14.876304,9.78563049 14.7462627,9.74580734 14.7437986,9.64462 L14.6996832,7.83413763 L12.972424,7.28972907 C12.8758469,7.25928543 12.8735418,7.12344162 12.9690855,7.08981849 L14.6773472,6.48841753 L14.6612908,4.67745823 C14.6602575,4.5761914 14.7888679,4.53215543 14.8503116,4.6125171 Z" id="Path"></path>
                        <path d="M8.76810192,12.6335812 C5.66849441,12.6335812 3.15415193,10.1191592 3.15415193,7.01676966 C3.15415193,3.92010318 5.66857389,1.40003762 8.76810192,1.40003762 C9.92130376,1.40003762 10.9847644,1.75470998 11.8711274,2.35499811 C12.0068122,2.44688544 12.161733,2.26859541 12.0481456,2.15047728 C10.7236486,0.773359693 8.84894051,-0.0667416479 6.77034745,0.00416102934 C3.19930072,0.12601507 0.243008825,2.98914784 0.014800769,6.55494841 C-0.246553494,10.6393242 2.98746705,14.0336706 7.01397604,14.0336706 C8.9974228,14.0336706 10.7800051,13.204459 12.0529149,11.8786902 C12.1653894,11.7615259 12.0101507,11.5859385 11.8757376,11.6770309 C10.9885003,12.2785909 9.92329094,12.6335812 8.76810192,12.6335812 Z" id="Path"></path>
                    </g>
                </g>
                <path d="M5.29411765,45 L5.29411765,2.64705882 C5.29411765,1.18508824 4.10902941,0 2.64705882,0 C1.18508824,0 0,1.18508824 0,2.64705882 L0,45 L5.29411765,45 Z" id="Path-Copy" fill="#CCB394" fill-rule="nonzero"></path>
            </g>
        </g>
    </g>
</svg>