<?xml version="1.0" encoding="UTF-8"?><svg id="Layer_2" xmlns="http://www.w3.org/2000/svg" viewBox="0 0 30 29.96"><g id="Layer_1-2"><g><path d="M22.8,8.51c-.24,.24-.24,.62,0,.85l3.06,3.06c.12,.12,.28,.18,.42,.18s.3-.06,.42-.18c.24-.24,.24-.62,0-.85l-3.06-3.06c-.24-.24-.62-.24-.85,0Z"/><path d="M20.28,10.46c-.24,.24-.24,.62,0,.85l1.81,1.81c.12,.12,.28,.18,.42,.18s.3-.06,.42-.18c.24-.24,.24-.62,0-.85l-1.81-1.81c-.24-.22-.62-.22-.85,0Z"/><path d="M29.68,18.09l-.24-.24c-.54-.54-1.33-.72-2.05-.5l-4.89,1.51-6.84-7.44,3.58-2.74s.06-.04,.08-.04l6.7-5.09c.24-.18,.38-.46,.4-.76,.02-.3-.1-.6-.3-.8-.72-.72-1.81-.95-2.76-.58l-3.66,1.41-1.27-1.27c-.26-.26-.6-.4-.97-.4s-.7,.14-.97,.4l-.72,.72c-.52,.52-.52,1.37-.02,1.91l.1,.1-4.99,1.91-2.9-3.12C6.32,1.25,4.07,.18,1.63,0,1.19-.02,.77,.14,.44,.44,.14,.77-.02,1.19,0,1.65c.16,2.43,1.25,4.67,3.04,6.32l3.14,2.88-1.91,4.99-.1-.1c-.54-.5-1.39-.48-1.91,.02l-.74,.74c-.26,.26-.4,.6-.4,.97s.14,.7,.4,.97l1.27,1.27-1.41,3.66c-.36,.93-.14,1.99,.54,2.7,.16,.18,.38,.3,.6,.34,.38,.08,.78-.08,1.03-.4l1.71-2.25s.04-.04,.04-.06l6.12-8.05,7.44,6.84-1.51,4.91c-.22,.72-.02,1.51,.5,2.03l.24,.24c.18,.18,.42,.3,.68,.3,.28,.02,.54-.1,.74-.28,.04-.04,.08-.1,.12-.16l3.94-5.98,1.31-.87,.08-.06,4.59-3.02c.28-.18,.44-.5,.44-.85-.02-.22-.14-.48-.32-.66ZM16.6,3.08l.72-.72c.08-.08,.2-.08,.26,0l.89,.89-1.43,.54-.44-.44c-.06-.06-.06-.18,0-.26Zm7.18-.6c.26-.1,.58-.12,.93-.02,.16,.04,.24,.1,.26,.2,.02,.14-.12,.26-.14,.28l-4.45,3.38s-.06,.04-.1,.06l-5.43,4.14-3.14-3.42L23.78,2.48ZM2.36,17.61c-.08-.08-.08-.2,0-.26l.72-.72c.08-.08,.2-.08,.26,0l.44,.44-.54,1.43-.89-.89Zm2.84,4.27s-.04,.04-.04,.06l-2.23,2.94s-.1,.12-.22,.12h-.02c-.08-.02-.16-.08-.2-.2-.12-.32-.12-.68,0-1.01L7.12,11.71l3.42,3.14-5.35,7.02Zm17.64,.72s-.04,.03-.07,.05l-.04,.03s-.02,.02-.02,.04c-.04,.04-.06,.06-.08,.1l-3.88,5.87-.08-.08c-.22-.22-.3-.56-.22-.87l1.63-5.25c.06-.22,0-.46-.16-.6L3.84,7.1C2.28,5.66,1.33,3.68,1.17,1.57c0-.08,.02-.16,.06-.22,.08-.1,.18-.16,.32-.16,2.13,.14,4.1,1.09,5.55,2.68l14.77,16.06c.16,.16,.38,.24,.6,.16l5.25-1.63c.3-.1,.64,0,.87,.22l.08,.08-5.83,3.84Z"/><path d="M9.36,22.8c-.24-.24-.62-.24-.85,0-.24,.24-.24,.62,0,.85l3.06,3.06c.12,.12,.28,.18,.42,.18s.3-.06,.42-.18c.24-.24,.24-.62,0-.85l-3.06-3.06Z"/><path d="M11.33,20.28c-.24-.24-.62-.24-.85,0-.24,.24-.24,.62,0,.85l1.81,1.81c.12,.12,.28,.18,.42,.18,.16,0,.3-.06,.42-.18,.24-.24,.24-.62,0-.85l-1.81-1.81Z"/></g></g></svg>