<?xml version="1.0" encoding="UTF-8"?><svg id="Layer_2" xmlns="http://www.w3.org/2000/svg" viewBox="0 0 30 29.87"><defs><style>.cls-1{fill:#fff;}</style></defs><g id="Layer_1-2"><g id="Page-1"><g id="_5"><g id="Group-14"><g id="Group-7"><path id="Combined-Shape-Copy-2" class="cls-1" d="m21.31,24.77c-.33,0-.65.07-.95.19-.31.13-.6.32-.84.56-.25.24-.44.52-.57.84-.12.3-.18.63-.19.95,0,.34.06.67.19.99.12.32.31.61.56.84.24.24.52.44.84.56.31.11.63.17.95.17.33,0,.66-.05.97-.17.32-.12.6-.31.83-.56.26-.23.46-.52.6-.84.12-.32.17-.65.17-.99,0-.33-.07-.65-.18-.95-.13-.32-.33-.6-.58-.84-.23-.25-.51-.44-.82-.56-.31-.12-.64-.19-.97-.19Zm-17.29,0c-.33,0-.65.07-.95.19-.31.13-.6.32-.84.56-.25.23-.45.52-.58.84-.12.3-.18.63-.19.95,0,.34.06.67.19.99.12.32.32.61.58.84.24.24.52.44.84.56.31.11.63.17.95.17.33,0,.66-.05.97-.17.32-.12.61-.31.84-.56.25-.23.45-.52.58-.84.12-.32.17-.65.17-.99,0-.33-.05-.65-.17-.95-.14-.31-.33-.6-.58-.84-.23-.25-.52-.45-.84-.56-.31-.12-.64-.19-.97-.19ZM23.44,0v7.78H1.17C.52,7.79,0,8.31,0,8.96H0v12.21c0,.31.12.61.34.83.22.22.52.34.83.34h23c.65,0,1.18-.53,1.18-1.18h0V1.92h3.69c.53,0,.96-.43.96-.96s-.43-.96-.96-.96h-5.6ZM1.92,9.7h21.52v10.73H1.92v-10.73Z"/></g></g></g></g></g></svg>