<?xml version="1.0" encoding="UTF-8"?><svg id="Layer_2" xmlns="http://www.w3.org/2000/svg" viewBox="0 0 30 27.28"><g id="Layer_1-2"><g><path d="M28.84,6.85l-4.56-4.45c-.71-.72-1.65-1.11-2.65-1.11h-.01c-.27,0-.53,.03-.8,.09L17.12,.15c-.96-.29-2.04-.17-2.97,.34L1.73,7.55c-.79,.46-1.36,1.2-1.6,2.07-.25,.89-.13,1.81,.33,2.61l2.87,4.85c-.18,.55-.21,1.13-.1,1.71,.17,.9,.68,1.68,1.43,2.18l8.24,5.53c.58,.39,1.23,.57,1.88,.57,.19,0,.39-.01,.57-.05h.01c.41,.17,.85,.27,1.32,.27h9.91c1.88,0,3.41-1.54,3.41-3.43V9.6c0-1.05-.42-2.05-1.16-2.75Zm.12,16.99c0,1.32-1.06,2.4-2.38,2.4h-9.91c-.43,0-.83-.12-1.19-.32-.72-.42-1.19-1.2-1.19-2.08l-.02-14.25c.01-.78,.32-1.52,.85-2.01l4.57-4.46c.2-.2,.43-.36,.67-.49,.13-.06,.27-.12,.41-.16,.03-.02,.07-.03,.12-.04,.24-.06,.48-.1,.73-.1h.01c.73,0,1.4,.29,1.93,.81l1.26,1.24,3.3,3.22c.53,.5,.85,1.23,.85,2v14.24ZM1.36,11.7c-.65-1.13-.25-2.59,.9-3.24L14.66,1.41c.67-.37,1.46-.47,2.15-.26l2.08,.68-4.71,.88c-.98,.17-1.89,.76-2.5,1.63L3.89,15.98,1.36,11.7Zm12.12,13.93l-8.23-5.53c-.52-.34-.89-.89-1.01-1.51-.12-.63,.01-1.27,.36-1.81L12.52,4.93c.46-.63,1.12-1.07,1.84-1.2l3.98-.73-3.93,3.83c-.72,.68-1.14,1.68-1.17,2.75v14.26c.01,.74,.25,1.43,.66,2-.15-.05-.29-.13-.43-.21Z"/><path d="M21.37,7.94c.09,.01,.17,.02,.27,.02,.52,0,1-.18,1.37-.48,.05-.04,.11-.1,.15-.14,.04-.05,.09-.1,.13-.15,.3-.37,.48-.85,.48-1.38,0-.59-.24-1.12-.63-1.51-.39-.39-.92-.63-1.52-.63-.2,.01-.41,.04-.6,.12-.39,.12-.73,.34-.97,.64-.04,.03-.07,.07-.11,.12-.27,.35-.43,.79-.43,1.26,0,1.09,.81,2,1.86,2.13Zm.27-1.02c-.13,0-.25-.02-.36-.06-.43-.15-.73-.55-.73-1.05,0-.18,.05-.36,.14-.51,.02-.05,.05-.1,.1-.13,.07-.13,.19-.22,.32-.3,.16-.1,.34-.15,.53-.16,.61,0,1.09,.48,1.09,1.1,0,.31-.12,.59-.31,.79l-.02,.02c-.19,.18-.46,.3-.76,.3Z"/><path d="M22.36,14.02c.55,0,.98,.44,.98,.98,0,.05,.01,.11,.02,.15,.06,.21,.27,.37,.5,.37,.29,0,.52-.24,.52-.52,0-.35-.1-.7-.26-.98-.34-.62-1.01-1.05-1.78-1.05h-.14v-.88c0-.29-.24-.52-.52-.52s-.51,.24-.51,.52v.88h-.3c-1.11,0-2.02,.91-2.02,2.03s.85,1.97,1.92,2.02c.03,.01,.07,.01,.11,.01h.3v1.97h-.3s-.05,0-.09-.01c-.5-.03-.9-.46-.9-.97,0-.29-.24-.52-.52-.52s-.51,.24-.51,.52c0,.87,.55,1.6,1.32,1.88,.22,.1,.46,.14,.71,.14h.3v1.09c0,.29,.24,.52,.51,.52s.52-.24,.52-.52v-1.09h.14c1.12,0,2.03-.91,2.03-2.02,0-.61-.27-1.14-.68-1.51-.26-.25-.58-.41-.93-.48-.1-.02-.2-.03-.31-.03-.03-.01-.07-.01-.11-.01h-.14v-1.97h.14Zm.98,4c0,.55-.44,.98-.98,.98h-.14v-1.97h.14c.31,0,.59,.14,.76,.36,.14,.17,.22,.39,.22,.62Zm-2.16-2.03h-.3c-.55,0-.98-.44-.98-.98s.44-.98,.98-.98h.3v1.97Z"/></g></g></svg>