<?xml version="1.0" encoding="UTF-8"?><svg id="Layer_2" xmlns="http://www.w3.org/2000/svg" xmlns:xlink="http://www.w3.org/1999/xlink" viewBox="0 0 38.11 25.5"><defs><linearGradient id="linear-gradient" x1="-548.28" y1="486.17" x2="-547.42" y2="487.1" gradientTransform="translate(9868.5 9025.46) scale(17.97 -18.53)" gradientUnits="userSpaceOnUse"><stop offset="0" stop-color="#a42639"/><stop offset="1" stop-color="#fd4755"/></linearGradient><linearGradient id="linear-gradient-2" x1="-536.97" y1="482.72" x2="-536.3" y2="483.57" gradientTransform="translate(7185.15 7945.39) scale(13.37 -16.42)" xlink:href="#linear-gradient"/><linearGradient id="linear-gradient-3" x1="-342.82" y1="380.77" x2="-342.42" y2="381.4" gradientTransform="translate(840.82 1422.22) scale(2.44 -3.69)" gradientUnits="userSpaceOnUse"><stop offset="0" stop-color="#fe9315"/><stop offset="1" stop-color="#fccb3f"/></linearGradient><linearGradient id="linear-gradient-4" x1="-495.37" y1="358.55" x2="-495.37" y2="359.55" gradientTransform="translate(3395.71 1152.76) scale(6.84 -3.16)" gradientUnits="userSpaceOnUse"><stop offset="0" stop-color="#a2aee6"/><stop offset=".18" stop-color="#aebaea"/><stop offset=".35" stop-color="#cbd7f4"/><stop offset="1" stop-color="#e5f1fd"/></linearGradient><linearGradient id="linear-gradient-5" x1="-515.69" y1="437.5" x2="-514.73" y2="437.99" gradientTransform="translate(4618.65 2845.46) scale(8.94 -6.48)" gradientUnits="userSpaceOnUse"><stop offset="0" stop-color="#a2aee6"/><stop offset="1" stop-color="#e5f1fd"/></linearGradient><linearGradient id="linear-gradient-6" x1="-509.99" y1="453.47" x2="-509.26" y2="454.06" gradientTransform="translate(4201.02 3752) scale(8.22 -8.22)" gradientUnits="userSpaceOnUse"><stop offset="0" stop-color="#3f5a5a"/><stop offset="1" stop-color="#537983"/></linearGradient><linearGradient id="linear-gradient-7" x1="-425.8" y1="382.92" x2="-425.05" y2="383.55" gradientTransform="translate(1604.66 1456.68) scale(3.75 -3.75)" gradientUnits="userSpaceOnUse"><stop offset="0" stop-color="#a8b4e8"/><stop offset="1" stop-color="#e5f1fd"/></linearGradient><linearGradient id="linear-gradient-8" x1="-551.17" y1="358.89" x2="-551.17" y2="359.89" gradientTransform="translate(11064.07 1156.37) scale(20.03 -3.17)" xlink:href="#linear-gradient-4"/><linearGradient id="linear-gradient-9" x1="-509.99" y1="453.47" x2="-509.26" y2="454.06" gradientTransform="translate(4219.67 3752) scale(8.22 -8.22)" xlink:href="#linear-gradient-6"/><linearGradient id="linear-gradient-10" x1="-425.8" y1="382.92" x2="-425.05" y2="383.55" gradientTransform="translate(1623.3 1456.68) scale(3.75 -3.75)" xlink:href="#linear-gradient-7"/></defs><g id="Layer_1-2"><g id="_لندینگ-امارت-ترکیه-ایبی"><g id="Asia-crawl-landing2"><g id="Group-4"><g id="Group-3"><g id="Group-16"><ellipse id="Oval" cx="19.05" cy="24.01" rx="19.05" ry="1.49" style="fill:#e6edf5;"/><g id="Asset-20"><rect id="Rectangle" x="16.78" width="17.97" height="18.53" rx="3.8" ry="3.8" style="fill:url(#linear-gradient);"/><path id="Path" d="M20.56,6.95h-1.82v1.16h1.52c.11,0,.23,.02,.31,.09,.07,.06,.11,.16,.1,.25,0,.1-.03,.19-.11,.25-.09,.07-.2,.1-.31,.09h-1.52v1.5c.01,.15-.03,.3-.13,.42-.09,.09-.21,.14-.33,.14s-.24-.05-.33-.14c-.09-.12-.14-.27-.13-.42v-3.49c0-.11,.02-.22,.06-.32,.04-.08,.1-.15,.18-.18,.1-.04,.21-.06,.32-.06h2.17c.12,0,.23,.03,.33,.1,.07,.07,.11,.16,.11,.26,0,.1-.03,.19-.11,.26-.09,.07-.21,.1-.33,.09Z" style="fill:#fff;"/><path id="Shape" d="M22.92,8.84h-.32v1.46c.01,.15-.03,.3-.13,.43-.09,.09-.21,.14-.33,.14-.13,0-.25-.04-.34-.14-.09-.12-.13-.27-.12-.42v-3.49c-.01-.16,.04-.31,.14-.43,.12-.1,.27-.15,.43-.14h1.5c.18,0,.35,0,.53,.03,.14,.01,.27,.05,.4,.11,.14,.06,.26,.15,.37,.25,.11,.11,.19,.24,.25,.39,.06,.15,.09,.31,.09,.47,.02,.3-.08,.59-.28,.81-.24,.23-.54,.38-.87,.43,.18,.1,.34,.23,.47,.38,.15,.17,.28,.35,.4,.54,.1,.17,.19,.34,.27,.52,.05,.1,.08,.21,.1,.32,0,.06-.02,.13-.06,.18-.04,.06-.09,.11-.16,.14-.07,.03-.15,.05-.23,.05-.09,0-.18-.02-.26-.07-.07-.05-.13-.11-.18-.18-.05-.07-.12-.18-.21-.33l-.37-.61c-.1-.18-.22-.36-.36-.52-.09-.1-.19-.19-.32-.24-.13-.05-.27-.07-.41-.06h0Zm.53-1.91h-.85v1.26h.82c.19,0,.38-.02,.56-.06,.13-.03,.25-.1,.35-.2,.08-.11,.13-.24,.12-.38,0-.12-.03-.23-.1-.33-.07-.1-.16-.17-.27-.22-.21-.06-.42-.09-.64-.08Z" style="fill:#fff;"/><path id="Path-2" d="M29.24,6.95h-2.07v1.12h1.91c.11,0,.23,.02,.32,.09,.07,.06,.11,.16,.1,.25,0,.09-.03,.19-.1,.25-.09,.07-.2,.11-.32,.1h-1.91v1.3h2.15c.12,0,.23,.03,.33,.1,.07,.07,.11,.17,.11,.27,0,.1-.04,.2-.11,.26-.09,.07-.21,.11-.33,.1h-2.5c-.16,.01-.31-.04-.43-.14-.1-.12-.15-.27-.13-.43v-3.42c0-.11,.02-.22,.06-.32,.04-.08,.1-.15,.18-.18,.1-.04,.21-.06,.32-.06h2.43c.12,0,.23,.03,.33,.1,.07,.07,.11,.16,.11,.26,0,.1-.04,.19-.11,.26-.09,.07-.21,.11-.33,.1Z" style="fill:#fff;"/><path id="Path-3" d="M33.48,6.95h-2.08v1.12h1.91c.11,0,.22,.02,.31,.09,.07,.06,.11,.16,.1,.25,0,.09-.03,.19-.1,.25-.09,.07-.2,.11-.32,.1h-1.91v1.3h2.15c.12,0,.23,.03,.33,.1,.07,.07,.11,.17,.11,.27,0,.1-.04,.2-.11,.26-.09,.07-.21,.11-.33,.1h-2.51c-.16,.03-.31-.02-.43-.13-.11-.11-.16-.27-.13-.43v-3.43c0-.11,.02-.22,.06-.32,.04-.08,.1-.15,.18-.18,.1-.04,.21-.06,.32-.06h2.43c.12,0,.23,.03,.33,.1,.07,.07,.11,.16,.11,.26,0,.1-.04,.19-.11,.26-.09,.07-.21,.11-.33,.1Z" style="fill:#fff;"/><path id="Path-4" d="M16.78,4.42v15.45H4.74c-.73,0-1.33-.59-1.33-1.33v-4.07c0-1.25,.12-2.2,.47-3.11,.5-1.3,1.47-2.51,3.23-4.33,2.66-2.74,4.3-3.57,7.34-3.57h1.36c.54,0,.97,.44,.97,.97Z" style="fill:url(#linear-gradient-2);"/><path id="Path-5" d="M3.81,14.39h0c.96,0,1.74,.78,1.74,1.74v1.25c0,.39-.31,.7-.7,.7h-1.04c-.39,0-.7-.31-.7-.7v-2.29c0-.39,.31-.7,.7-.7h0Z" style="fill:url(#linear-gradient-3);"/><path id="Path-6" d="M9.67,18.29c0,.87-.71,1.58-1.58,1.58h-3.68c-.15,0-.3-.02-.45-.07-.75-.22-1.23-.96-1.11-1.74,.11-.78,.78-1.35,1.56-1.35h3.69c.87,0,1.57,.71,1.58,1.58h0Z" style="fill:url(#linear-gradient-4);"/><path id="Path-7" d="M6.88,12.08h7.8c.32,0,.57-.26,.57-.57V6.18c0-.32-.26-.57-.57-.57h-2.47c-1.55,0-2.37,.89-3.69,2.19-1.6,1.58-2.22,2.23-2.22,3.71h0c0,.32,.26,.57,.57,.57h0Z" style="fill:url(#linear-gradient-5);"/><circle id="Oval-2" cx="9.68" cy="19.89" r="4.11" style="fill:url(#linear-gradient-6);"/><circle id="Oval-3" cx="9.68" cy="19.89" r="1.87" style="fill:url(#linear-gradient-7);"/><path id="Path-8" d="M35.28,17.73v1.12c0,.56-.51,1.02-1.13,1.02H16.06c-.43,.02-.78-.31-.8-.74v-1.7c.02-.42,.38-.75,.8-.73h18.1c.62,0,1.13,.46,1.13,1.02Z" style="fill:url(#linear-gradient-8);"/><circle id="Oval-4" cx="28.32" cy="19.89" r="4.11" style="fill:url(#linear-gradient-9);"/><circle id="Oval-5" cx="28.32" cy="19.89" r="1.87" style="fill:url(#linear-gradient-10);"/></g></g></g></g></g></g></g></svg>