<?xml version="1.0" encoding="UTF-8"?><svg id="Layer_2" xmlns="http://www.w3.org/2000/svg" viewBox="0 0 30 28.33"><g id="Layer_1-2"><g><path d="M26.9,0H3.1C1.39,0,0,1.31,0,2.95V25.38c0,1.64,1.39,2.95,3.1,2.95H26.9c1.71,0,3.1-1.31,3.1-2.95V2.95c0-1.64-1.39-2.95-3.1-2.95Zm-9.27,1.14V7.46c0,.22-.24,.32-.39,.17l-1.27-1.27c-.52-.52-1.4-.52-1.92,0l-1.27,1.27-.05,.04c-.15,.08-.34-.02-.34-.21V1.14s5.24,0,5.24,0Zm11.24,24.25c0,1-.87,1.82-1.97,1.82H3.1c-1.1,0-1.97-.82-1.97-1.82V2.95c0-1,.87-1.82,1.97-1.82H11.24s0,6.32,0,6.32c0,1.22,1.45,1.82,2.32,.98l1.28-1.28c.08-.08,.23-.08,.31,0l1.27,1.27,.1,.09c.88,.73,2.23,.12,2.23-1.06V1.13s8.14,0,8.14,0c1.1,0,1.97,.82,1.97,1.82V25.38Z"/><path d="M20.23,13.19c-3.4,0-6.15,2.75-6.15,6.15s2.75,6.15,6.15,6.15,6.15-2.75,6.15-6.15-2.75-6.15-6.15-6.15Zm0,11.17c-2.77,0-5.02-2.25-5.02-5.02s2.25-5.02,5.02-5.02,5.02,2.25,5.02,5.02-2.25,5.02-5.02,5.02Z"/><path d="M22.6,16.95l-2.38,2.38-1.21-1.21-.09-.07c-.22-.15-.52-.12-.71,.07-.22,.22-.22,.58,0,.8l1.61,1.61,.09,.07c.22,.15,.52,.12,.71-.07l2.78-2.78,.07-.09c.15-.22,.12-.52-.07-.71-.22-.22-.58-.22-.8,0Z"/></g></g></svg>