<?xml version="1.0" encoding="UTF-8"?><svg id="Layer_2" xmlns="http://www.w3.org/2000/svg" viewBox="0 0 157.86 34"><g id="Layer_1-2"><g id="_لندینگ-امارت-ترکیه-ایبی"><g id="Asia-crawl-landing2-Copy-3"><g id="Malltina"><path id="Shape" d="M40.27,14.59h0c-.15-.02-.27-.1-.34-.23l-.02-.02s-.04-.06-.06-.06c-.17-.17-.17-.46,0-.63,.06-.08,.17-.13,.27-.13v-.06l-.27-2.08v-.04c-.06-.02-.13-.04-.19-.1-.48-.42-.42-1.11-.42-1.68,0-.23,.15-.36,.31-.42v-.04l-.27-2.08h-14.19l-.44,2.08v.04c.23,.04,.42,.25,.34,.55-.13,.48-.23,.96-.42,1.43-.06,.15-.21,.21-.38,.21l-.02,.06-.44,2.08v.02c.1,.08,.19,.23,.19,.36s-.02,.27-.04,.4c-.02,.19-.19,.29-.36,.31l-2.1,9.98L17.25,4.74c-.08-.31-.23-.61-.42-.84-.19-.21-.44-.31-.73-.31H4.99c-.25,0-.48,.08-.67,.25-.27,.25-.44,.55-.48,.9L0,34H7.11c.25,0,.52-.08,.71-.27,.25-.25,.4-.52,.44-.86l2.31-17.73c.08-.67,1.05-.71,1.17-.04l3.75,17.78c.08,.31,.21,.57,.4,.8,.19,.23,.44,.34,.75,.34h9.56c.31,0,.55-.1,.73-.34,.19-.23,.31-.5,.4-.8l3.75-17.8c.15-.67,1.09-.63,1.17,.04l2.31,17.73c.04,.34,.19,.63,.44,.86,.19,.19,.44,.27,.71,.27h7.11l-2.56-19.39Z" style="fill:#fff;"/><circle id="Oval" cx="105.21" cy="3.31" r="3.31" style="fill:#fff;"/><path id="Shape-2" d="M102.34,33.96s1.07-.38,2.87-.38,2.87,.38,2.87,.38V9.06h-5.74v24.9h0Z" style="fill:#fff;"/><path id="Shape-3" d="M130.47,11.59c-1.59-1.59-3.73-2.49-5.97-2.54h-12.58v24.9h5.74V14.8h6.73c1.57,.02,2.85,1.3,2.85,2.87h0v16.29h5.72V17.57h0c-.02-2.24-.92-4.38-2.49-5.97Z" style="fill:#fff;"/><path id="Shape-4" d="M94.68,3.31h-5.74V28.19c0,3.14,2.6,5.74,5.74,5.74h3.84v-5.74h-2.87c-.52,0-.96-.42-.96-.96V14.8h3.84v-5.74h-3.84V3.31h0Z" style="fill:#fff;"/><polygon id="Rectangle-path" points="70.1 3.31 75.84 3.31 75.84 33.94 70.1 33.94 70.1 3.31" style="fill:#fff;"/><path id="Shape-5" d="M65.97,14.76h0c-.02-3.12-2.58-5.68-5.7-5.7h-11.51v5.74h10.52c.52,0,.96,.42,.96,.96v1.59h-7.02c-4.59,0-8.3,3.71-8.3,8.3s3.37,7.94,7.65,8.28v.02h7.65c.27,0,.55-.02,.8-.06,2.85-.4,4.93-2.89,4.95-5.68h0V14.82h0v-.06h0Zm-5.74,13.46h-6.73c-.1,.02-.19,.02-.29,.02-1.43,0-2.58-1.15-2.58-2.58s1.15-2.58,2.58-2.58h7.02v5.14Z" style="fill:#fff;"/><path id="Shape-6" d="M157.86,14.76h0c-.02-3.12-2.58-5.68-5.7-5.7h-11.53v5.74h10.52c.52,0,.96,.42,.96,.96v1.59h-7.02c-4.59,0-8.3,3.71-8.3,8.3s3.37,7.94,7.65,8.28v.02h7.65c.27,0,.54-.02,.8-.06,2.85-.4,4.93-2.89,4.95-5.68h0V14.82h0v-.02s.02-.02,.02-.04Zm-5.74,13.46h-6.73c-.1,.02-.19,.02-.29,.02-1.43,0-2.58-1.15-2.58-2.58s1.15-2.58,2.58-2.58h7.02v5.14Z" style="fill:#fff;"/><polygon id="Rectangle-path-2" points="78.92 3.31 84.66 3.31 84.66 33.94 78.92 33.94 78.92 3.31" style="fill:#fff;"/><polygon id="Shape-7" points="39.85 11.36 24.17 11.36 24.65 9.1 39.55 9.1 39.85 11.36" style="fill:#f89921;"/><path id="Shape-8" d="M39.28,7h-14.19l.48-2.26c.08-.31,.23-.61,.42-.84,.19-.21,.44-.31,.73-.31h11.13c.25,0,.48,.08,.67,.25,.27,.25,.44,.55,.48,.9l.27,2.26Z" style="fill:#f89921;"/><polygon id="Shape-9" points="40.27 14.59 23.5 14.59 23.56 14.21 23.56 14.19 23.73 13.44 40.12 13.44 40.27 14.59" style="fill:#f89921;"/></g></g></g></g></svg>