<?xml version="1.0" encoding="UTF-8"?><svg id="Layer_2" xmlns="http://www.w3.org/2000/svg" viewBox="0 0 24 30"><g id="Layer_1-2"><g id="Page-1"><g id="_5"><g id="Group-14"><path id="Combined-Shape" d="M12.41,0c4.56,0,8.28,3.71,8.28,8.28,0,2.96-1.57,5.55-3.91,7.02,4.69,1.77,8.04,6.3,8.04,11.6h0v3.1h-.34s0,0,0,0H.48s-.48,0-.48,0v-3.1c0-5.31,3.35-9.83,8.04-11.6-2.34-1.46-3.91-4.06-3.91-7.02C4.14,3.71,7.85,0,12.41,0Zm0,16.55c-5.7,0-10.34,4.64-10.34,10.34h0v1.03s20.69,0,20.69,0v-1.03c0-5.58-4.45-10.15-9.99-10.34h-.36Zm0-14.49c-3.42,0-6.21,2.78-6.21,6.21s2.78,6.21,6.21,6.21,6.21-2.78,6.21-6.21-2.78-6.21-6.21-6.21Z"/></g></g></g></g></svg>